<?xml version="1.0" encoding="UTF-8"?>
<svg xmlns="http://www.w3.org/2000/svg" xmlns:xlink="http://www.w3.org/1999/xlink" width="512pt" height="512pt" viewBox="0 0 512 512" version="1.1">
<defs>
<filter id="alpha" filterUnits="objectBoundingBox" x="0%" y="0%" width="100%" height="100%">
  <feColorMatrix type="matrix" in="SourceGraphic" values="0 0 0 0 1 0 0 0 0 1 0 0 0 0 1 0 0 0 1 0"/>
</filter>
<mask id="mask0">
  <g filter="url(#alpha)">
<rect x="0" y="0" width="512" height="512" style="fill:rgb(0%,0%,0%);fill-opacity:0.25098;stroke:none;"/>
  </g>
</mask>
<clipPath id="clip1">
  <rect x="0" y="0" width="512" height="512"/>
</clipPath>
<g id="surface5" clip-path="url(#clip1)">
<path style=" stroke:none;fill-rule:nonzero;fill:rgb(0%,0%,0%);fill-opacity:1;" d="M 165.679688 215.039062 L 166.960938 214.640625 C 163.074219 216.460938 159.695312 219.207031 157.121094 222.640625 C 153.839844 227.28125 154.558594 229.679688 151.601562 244.640625 C 150.800781 248.558594 148.960938 257.199219 147.28125 268.640625 C 146.902344 271.132812 146.902344 273.667969 147.28125 276.160156 C 148.109375 281.261719 150.449219 286 154 289.761719 L 147.761719 284.480469 C 148.589844 295.464844 151.097656 306.257812 155.199219 316.480469 L 157.601562 312 C 155.121094 314.160156 154.71875 315.679688 154.878906 316.71875 C 155.148438 317.78125 155.550781 318.800781 156.078125 319.761719 L 160 328 C 164.578125 334.628906 170.628906 340.105469 177.679688 344 C 184.902344 349.824219 190.632812 357.28125 194.398438 365.761719 C 212.492188 378.300781 233.988281 385 256 384.960938 C 260.65625 384.964844 265.308594 384.644531 269.921875 384 C 269.796875 385.652344 269.796875 387.308594 269.921875 388.960938 C 261.910156 388.957031 254.015625 390.847656 246.878906 394.480469 C 244.050781 395.945312 241.371094 397.6875 238.878906 399.679688 C 240.800781 401.359375 243.199219 403.039062 244.800781 402.320312 C 246.398438 401.601562 245.359375 397.441406 247.039062 394.320312 C 250.71875 387.761719 265.441406 392.320312 266.878906 389.121094 C 268.320312 385.921875 243.679688 373.761719 223.839844 354.398438 C 217.199219 347.921875 188.320312 318.320312 187.441406 275.921875 C 187.160156 264.574219 188.699219 253.257812 192 242.398438 C 202.164062 211.113281 225.921875 186.089844 256.640625 174.320312 L 216.640625 174.320312 C 195.910156 182.402344 178.136719 196.605469 165.679688 215.039062 Z M 165.679688 215.039062 "/>
<path style=" stroke:none;fill-rule:nonzero;fill:rgb(0%,0%,0%);fill-opacity:1;" d="M 60.160156 241.519531 C 59.960938 242.363281 59.960938 243.238281 60.160156 244.078125 C 60.472656 244.898438 60.996094 245.617188 61.679688 246.160156 L 113.519531 289.679688 C 115.292969 291.027344 117.746094 291.027344 119.519531 289.679688 C 121.316406 288.359375 122.03125 286.019531 121.28125 283.921875 C 119.402344 276.578125 119.046875 268.925781 120.238281 261.441406 L 101.679688 245.921875 L 76.800781 229.199219 C 66.960938 234.480469 60.398438 239.441406 60.160156 241.519531 Z M 60.160156 241.519531 "/>
<path style=" stroke:none;fill-rule:nonzero;fill:rgb(0%,0%,0%);fill-opacity:1;" d="M 262.878906 95.359375 L 262.878906 95.921875 L 264 96 Z M 262.878906 95.359375 "/>
<path style=" stroke:none;fill-rule:nonzero;fill:rgb(0%,0%,0%);fill-opacity:1;" d="M 117.601562 312 L 83.761719 370.640625 C 82.875 372.175781 82.875 374.066406 83.761719 375.601562 C 84.632812 377.109375 86.253906 378.03125 88 378 L 128 378 C 126.710938 376.996094 125.28125 376.1875 123.761719 375.601562 C 117.265625 373.515625 110.1875 374.394531 104.398438 378 L 129.679688 327.121094 C 128.429688 323.003906 127.46875 318.808594 126.800781 314.558594 C 126.925781 313.898438 126.925781 313.222656 126.800781 312.558594 L 126.800781 312 C 125.601562 311.039062 122.078125 310.960938 117.601562 312 Z M 117.601562 312 "/>
<path style=" stroke:none;fill-rule:nonzero;fill:rgb(0%,0%,0%);fill-opacity:1;" d="M 181.761719 388.558594 C 181.15625 387.871094 180.382812 387.347656 179.519531 387.039062 C 178.378906 386.515625 177.0625 386.515625 175.921875 387.039062 C 173.859375 387.929688 172.671875 390.105469 173.039062 392.320312 L 184.800781 459.199219 C 185.101562 460.925781 186.332031 462.34375 188 462.878906 C 189.601562 463.507812 191.417969 463.199219 192.71875 462.078125 L 218.320312 440.640625 C 218.320312 441.761719 218.320312 442.960938 218.320312 444 C 218.988281 452.1875 221.5625 460.105469 225.839844 467.121094 C 228.203125 470.886719 232.351562 473.160156 236.800781 473.121094 L 276.800781 473.121094 C 272.351562 473.160156 268.203125 470.886719 265.839844 467.121094 C 261.277344 460.242188 258.675781 452.246094 258.320312 444 C 258.253906 425.464844 260.953125 407.023438 266.320312 389.28125 C 248.648438 388.265625 232.152344 398.160156 224.71875 414.222656 C 217.285156 430.289062 220.425781 449.265625 232.640625 462.078125 C 231.289062 463.097656 229.53125 463.398438 227.921875 462.878906 C 226.253906 462.34375 225.019531 460.925781 224.71875 459.199219 L 215.441406 406.320312 C 213.441406 405.761719 211.441406 405.039062 209.199219 404.238281 C 198.925781 401.296875 189.511719 395.917969 181.761719 388.558594 Z M 181.761719 388.558594 "/>
<path style=" stroke:none;fill-rule:nonzero;fill:rgb(0%,0%,0%);fill-opacity:1;" d="M 34.800781 174.320312 L 74.800781 174.320312 C 70.34375 174.238281 66.253906 171.84375 64 168 C 58.890625 159.957031 56.121094 150.648438 56 141.121094 C 55.949219 137.972656 56.273438 134.832031 56.960938 131.761719 C 61.339844 107.460938 82.507812 89.796875 107.199219 89.839844 C 107.167969 75.761719 112.957031 62.296875 123.199219 52.640625 C 127.589844 48.433594 132.714844 45.070312 138.320312 42.71875 C 135.542969 41.585938 132.679688 40.679688 129.761719 40 C 114.582031 36.691406 98.71875 40.417969 86.601562 50.140625 C 74.488281 59.863281 67.414062 74.542969 67.359375 90.078125 C 42.667969 90.039062 21.5 107.699219 17.121094 132 C 16.371094 135.089844 15.996094 138.261719 16 141.441406 C 16.179688 150.859375 18.949219 160.046875 24 168 C 26.253906 171.84375 30.34375 174.238281 34.800781 174.320312 Z M 34.800781 174.320312 "/>
</g>
</defs>
<g id="surface1">
<path style=" stroke:none;fill-rule:nonzero;fill:rgb(100%,73.333333%,0%);fill-opacity:1;" d="M 364.960938 276.078125 C 365.007812 300.113281 357.039062 323.480469 342.320312 342.480469 C 339.742188 341.308594 337.066406 340.371094 334.320312 339.679688 L 331.679688 338.960938 C 328.054688 338.152344 324.351562 337.75 320.640625 337.761719 C 307.570312 337.851562 295.03125 342.949219 285.601562 352 C 276.515625 360.335938 270.820312 371.730469 269.601562 384 C 264.960938 384.644531 260.285156 384.96875 255.601562 384.960938 C 203.015625 385.074219 157.867188 347.589844 148.300781 295.882812 C 138.738281 244.175781 167.496094 193.023438 216.640625 174.320312 L 274.71875 174.320312 C 278.054688 174.414062 281.273438 173.109375 283.601562 170.71875 C 331.5 183.289062 364.910156 226.558594 364.960938 276.078125 Z M 364.960938 276.078125 "/>
<path style=" stroke:none;fill-rule:nonzero;fill:rgb(100%,73.333333%,0%);fill-opacity:1;" d="M 133.441406 220.078125 C 133.273438 220.976562 132.855469 221.808594 132.238281 222.480469 C 126.398438 231.480469 122.753906 241.730469 121.601562 252.398438 C 118.988281 262.90625 118.988281 273.894531 121.601562 284.398438 C 122.351562 286.496094 121.636719 288.839844 119.839844 290.160156 C 118.066406 291.507812 115.613281 291.507812 113.839844 290.160156 L 61.839844 246.160156 C 60.511719 245.023438 59.878906 243.273438 60.171875 241.550781 C 60.46875 239.828125 61.648438 238.386719 63.28125 237.761719 L 127.28125 214.640625 C 129.394531 213.875 131.757812 214.632812 133.039062 216.480469 C 133.628906 217.585938 133.773438 218.875 133.441406 220.078125 Z M 133.441406 220.078125 "/>
<path style=" stroke:none;fill-rule:nonzero;fill:rgb(100%,73.333333%,0%);fill-opacity:1;" d="M 126.078125 312 C 126.546875 312.773438 126.796875 313.65625 126.800781 314.558594 C 128.066406 325.117188 131.851562 335.214844 137.839844 344 C 142.507812 353.675781 149.453125 362.074219 158.078125 368.480469 C 160.03125 369.570312 161.015625 371.828125 160.480469 374 C 159.933594 376.160156 157.988281 377.675781 155.761719 377.679688 L 88 377.679688 C 86.253906 377.710938 84.632812 376.792969 83.761719 375.28125 C 82.875 373.746094 82.875 371.855469 83.761719 370.320312 L 117.601562 312 C 118.746094 310.074219 121.042969 309.15625 123.199219 309.761719 C 124.429688 310.074219 125.472656 310.886719 126.078125 312 Z M 126.078125 312 "/>
<path style=" stroke:none;fill-rule:nonzero;fill:rgb(100%,73.333333%,0%);fill-opacity:1;" d="M 209.28125 404.238281 C 198.945312 401.21875 189.5 395.726562 181.761719 388.238281 C 181.15625 387.550781 180.382812 387.027344 179.519531 386.71875 C 178.359375 386.277344 177.078125 386.277344 175.921875 386.71875 C 173.859375 387.609375 172.671875 389.789062 173.039062 392 L 184.800781 459.199219 C 185.101562 460.925781 186.332031 462.34375 188 462.878906 C 189.601562 463.507812 191.417969 463.199219 192.71875 462.078125 L 218.320312 440.640625 C 218.3125 437.46875 218.636719 434.304688 219.28125 431.199219 C 220.082031 427.046875 221.34375 422.996094 223.039062 419.121094 C 224.558594 415.8125 226.464844 412.695312 228.71875 409.839844 C 222.0625 408.660156 215.546875 406.78125 209.28125 404.238281 Z M 209.28125 404.238281 "/>
<path style=" stroke:none;fill-rule:nonzero;fill:rgb(100%,73.333333%,0%);fill-opacity:1;" d="M 428.238281 370.558594 L 394.238281 312 C 393.140625 310.0625 390.855469 309.136719 388.71875 309.761719 C 386.59375 310.375 385.148438 312.347656 385.199219 314.558594 C 383.859375 325.113281 380.050781 335.199219 374.078125 344 C 370.949219 349.65625 367.308594 355.011719 363.199219 360 C 365.375 363.195312 367.175781 366.632812 368.558594 370.238281 C 369.277344 371.816406 369.867188 373.449219 370.320312 375.121094 C 374.917969 373.769531 379.6875 373.070312 384.480469 373.039062 C 391.851562 373.042969 399.125 374.710938 405.761719 377.921875 L 424 377.921875 C 425.75 377.886719 427.367188 376.984375 428.320312 375.519531 C 429.132812 373.960938 429.105469 372.09375 428.238281 370.558594 Z M 428.238281 370.558594 "/>
<path style=" stroke:none;fill-rule:nonzero;fill:rgb(100%,73.333333%,0%);fill-opacity:1;" d="M 390.238281 286.800781 C 389.964844 285.914062 389.964844 284.964844 390.238281 284.078125 C 392.816406 273.570312 392.816406 262.589844 390.238281 252.078125 C 389.109375 241.40625 385.464844 231.152344 379.601562 222.160156 C 378.15625 220.46875 377.996094 218.027344 379.199219 216.160156 C 380.433594 214.300781 382.789062 213.539062 384.878906 214.320312 L 448.878906 237.441406 C 450.527344 238.03125 451.722656 239.472656 452 241.199219 C 452.324219 242.921875 451.714844 244.683594 450.398438 245.839844 L 398.480469 289.359375 C 396.679688 290.71875 394.199219 290.71875 392.398438 289.359375 C 391.417969 288.769531 390.65625 287.867188 390.238281 286.800781 Z M 390.238281 286.800781 "/>
<path style=" stroke:none;fill-rule:nonzero;fill:rgb(100%,73.333333%,0%);fill-opacity:1;" d="M 365.761719 197.921875 C 365.03125 197.382812 364.5 196.625 364.238281 195.761719 C 359.386719 186.21875 352.308594 177.984375 343.601562 171.761719 C 335.921875 164.273438 326.53125 158.78125 316.238281 155.761719 C 314.046875 155.375 312.378906 153.578125 312.160156 151.359375 C 311.882812 149.15625 313.183594 147.054688 315.28125 146.320312 L 379.28125 123.121094 C 380.921875 122.550781 382.746094 122.886719 384.078125 124 C 385.425781 125.101562 386.066406 126.847656 385.761719 128.558594 L 374 195.28125 C 373.609375 197.5 371.765625 199.175781 369.519531 199.359375 C 368.117188 199.453125 366.742188 198.929688 365.761719 197.921875 Z M 365.761719 197.921875 "/>
<path style=" stroke:none;fill-rule:nonzero;fill:rgb(88.627451%,88.627451%,88.627451%);fill-opacity:1;" d="M 488 467.441406 C 485.609375 471.015625 481.582031 473.148438 477.28125 473.121094 L 237.28125 473.121094 C 232.832031 473.160156 228.683594 470.886719 226.320312 467.121094 C 222.042969 460.105469 219.46875 452.1875 218.800781 444 C 218.800781 442.960938 218.800781 441.761719 218.800781 440.640625 C 218.792969 437.46875 219.117188 434.304688 219.761719 431.199219 C 220.5625 427.046875 221.824219 422.996094 223.519531 419.121094 C 225.039062 415.8125 226.945312 412.695312 229.199219 409.839844 C 233.878906 403.511719 239.992188 398.382812 247.039062 394.878906 C 254.175781 391.246094 262.070312 389.355469 270.078125 389.359375 C 269.957031 387.707031 269.957031 386.050781 270.078125 384.398438 C 271.296875 372.128906 276.996094 360.738281 286.078125 352.398438 C 295.59375 343.347656 308.226562 338.308594 321.359375 338.320312 C 325.074219 338.3125 328.777344 338.714844 332.398438 339.519531 L 335.039062 340.238281 C 337.785156 340.929688 340.464844 341.867188 343.039062 343.039062 C 349.042969 345.644531 354.476562 349.394531 359.039062 354.078125 C 360.953125 356.109375 362.71875 358.277344 364.320312 360.558594 C 366.496094 363.753906 368.296875 367.191406 369.679688 370.800781 C 370.398438 372.375 370.988281 374.007812 371.441406 375.679688 C 376.039062 374.328125 380.804688 373.628906 385.601562 373.601562 C 392.96875 373.601562 400.246094 375.269531 406.878906 378.480469 C 411.863281 380.808594 416.410156 383.972656 420.320312 387.839844 C 422.738281 390.039062 424.863281 392.539062 426.640625 395.28125 C 433.085938 392.3125 440.101562 390.78125 447.199219 390.800781 C 471.199219 390.785156 491.835938 407.796875 496.398438 431.359375 C 497.832031 443.996094 494.867188 456.738281 488 467.441406 Z M 488 467.441406 "/>
<path style=" stroke:none;fill-rule:nonzero;fill:rgb(88.627451%,88.627451%,88.627451%);fill-opacity:1;" d="M 293.519531 137.28125 C 293.636719 139.519531 293.636719 141.761719 293.519531 144 C 293.292969 150.71875 291.65625 157.3125 288.71875 163.359375 C 287.980469 165.214844 287.039062 166.984375 285.921875 168.640625 C 285.753906 168.941406 285.535156 169.210938 285.28125 169.441406 C 284.9375 169.941406 284.503906 170.375 284 170.71875 C 281.675781 173.109375 278.453125 174.414062 275.121094 174.320312 L 35.121094 174.320312 C 30.550781 174.347656 26.3125 171.941406 24 168 C 18.890625 159.957031 16.121094 150.648438 16 141.121094 C 15.949219 137.972656 16.273438 134.832031 16.960938 131.761719 C 21.339844 107.460938 42.507812 89.796875 67.199219 89.839844 C 67.285156 74.300781 74.402344 59.636719 86.554688 49.953125 C 98.710938 40.269531 114.59375 36.609375 129.761719 40 C 148.242188 44.105469 162.949219 58.074219 168 76.320312 C 172.601562 74.996094 177.371094 74.320312 182.160156 74.320312 C 195.148438 74.273438 207.628906 79.363281 216.878906 88.480469 C 219.28125 90.691406 221.40625 93.191406 223.199219 95.921875 C 229.683594 92.980469 236.71875 91.453125 243.839844 91.441406 L 244.800781 91.441406 C 268.316406 92.148438 288.226562 109.003906 292.800781 132.078125 C 293.199219 133.601562 293.359375 135.359375 293.519531 137.28125 Z M 293.519531 137.28125 "/>
<path style=" stroke:none;fill-rule:nonzero;fill:rgb(100%,100%,100%);fill-opacity:1;" d="M 318.992188 207.03125 C 309.832031 198.519531 298.894531 195.402344 294.566406 200.066406 C 290.234375 204.726562 294.152344 215.40625 303.316406 223.914062 C 312.480469 232.421875 323.414062 235.539062 327.746094 230.875 C 332.074219 226.214844 328.15625 215.539062 318.992188 207.03125 Z M 318.992188 207.03125 "/>
<path style=" stroke:none;fill-rule:nonzero;fill:rgb(100%,100%,100%);fill-opacity:1;" d="M 340.644531 248.015625 C 337.46875 241.207031 332.105469 236.992188 328.660156 238.597656 C 325.21875 240.203125 325 247.023438 328.175781 253.832031 C 331.347656 260.636719 336.714844 264.855469 340.15625 263.25 C 343.601562 261.644531 343.820312 254.824219 340.644531 248.015625 Z M 340.644531 248.015625 "/>
<path style="fill:none;stroke-width:2;stroke-linecap:round;stroke-linejoin:round;stroke:rgb(0%,0%,0%);stroke-opacity:1;stroke-miterlimit:4;" d="M 45.620117 34.509766 C 45.625977 37.51416 44.629883 40.435059 42.790039 42.810059 C 42.467773 42.663574 42.133301 42.546387 41.790039 42.459961 L 41.459961 42.370117 C 41.006836 42.269043 40.543945 42.21875 40.080078 42.220215 C 38.446289 42.231445 36.878906 42.868652 35.700195 44 C 34.564453 45.041992 33.852539 46.466309 33.700195 48 C 33.120117 48.080566 32.535645 48.121094 31.950195 48.120117 C 25.376953 48.134277 19.733398 43.44873 18.537598 36.985352 C 17.342285 30.521973 20.937012 24.12793 27.080078 21.790039 L 34.339844 21.790039 C 34.756836 21.801758 35.15918 21.638672 35.450195 21.339844 C 41.4375 22.911133 45.61377 28.319824 45.620117 34.509766 Z M 45.620117 34.509766 " transform="matrix(8,0,0,8,0,0)"/>
<path style="fill:none;stroke-width:2;stroke-linecap:round;stroke-linejoin:round;stroke:rgb(0%,0%,0%);stroke-opacity:1;stroke-miterlimit:4;" d="M 16.680176 27.509766 C 16.65918 27.62207 16.606934 27.726074 16.529785 27.810059 C 15.799805 28.935059 15.344238 30.216309 15.200195 31.549805 C 14.873535 32.863281 14.873535 34.236816 15.200195 35.549805 C 15.293945 35.812012 15.20459 36.10498 14.97998 36.27002 C 14.758301 36.438477 14.45166 36.438477 14.22998 36.27002 L 7.72998 30.77002 C 7.563965 30.62793 7.484863 30.40918 7.521484 30.193848 C 7.558594 29.978516 7.706055 29.79834 7.910156 29.720215 L 15.910156 26.830078 C 16.174316 26.734375 16.469727 26.829102 16.629883 27.060059 C 16.703613 27.198242 16.72168 27.359375 16.680176 27.509766 Z M 16.680176 27.509766 " transform="matrix(8,0,0,8,0,0)"/>
<path style="fill:none;stroke-width:2;stroke-linecap:round;stroke-linejoin:round;stroke:rgb(0%,0%,0%);stroke-opacity:1;stroke-miterlimit:4;" d="M 15.759766 39 C 15.818359 39.09668 15.849609 39.207031 15.850098 39.319824 C 16.008301 40.639648 16.481445 41.901855 17.22998 43 C 17.813477 44.209473 18.681641 45.259277 19.759766 46.060059 C 20.003906 46.196289 20.126953 46.478516 20.060059 46.75 C 19.991699 47.02002 19.748535 47.209473 19.470215 47.209961 L 11 47.209961 C 10.781738 47.213867 10.579102 47.099121 10.470215 46.910156 C 10.359375 46.718262 10.359375 46.481934 10.470215 46.290039 L 14.700195 39 C 14.843262 38.759277 15.130371 38.644531 15.399902 38.720215 C 15.553711 38.759277 15.684082 38.86084 15.759766 39 Z M 15.759766 39 " transform="matrix(8,0,0,8,0,0)"/>
<path style="fill:none;stroke-width:2;stroke-linecap:round;stroke-linejoin:round;stroke:rgb(0%,0%,0%);stroke-opacity:1;stroke-miterlimit:4;" d="M 26.160156 50.529785 C 24.868164 50.152344 23.6875 49.46582 22.720215 48.529785 C 22.644531 48.443848 22.547852 48.378418 22.439941 48.339844 C 22.294922 48.284668 22.134766 48.284668 21.990234 48.339844 C 21.732422 48.451172 21.583984 48.723633 21.629883 49 L 23.100098 57.399902 C 23.137695 57.615723 23.291504 57.792969 23.5 57.859863 C 23.700195 57.938477 23.927246 57.899902 24.089844 57.759766 L 27.290039 55.080078 C 27.289062 54.683594 27.32959 54.288086 27.410156 53.899902 C 27.510254 53.380859 27.667969 52.874512 27.879883 52.390137 C 28.069824 51.976562 28.308105 51.586914 28.589844 51.22998 C 27.757812 51.08252 26.943359 50.847656 26.160156 50.529785 Z M 26.160156 50.529785 " transform="matrix(8,0,0,8,0,0)"/>
<path style="fill:none;stroke-width:2;stroke-linecap:round;stroke-linejoin:round;stroke:rgb(0%,0%,0%);stroke-opacity:1;stroke-miterlimit:4;" d="M 53.529785 46.319824 L 49.279785 39 C 49.142578 38.757812 48.856934 38.64209 48.589844 38.720215 C 48.324219 38.796875 48.143555 39.043457 48.149902 39.319824 C 47.982422 40.63916 47.506348 41.899902 46.759766 43 C 46.368652 43.707031 45.913574 44.376465 45.399902 45 C 45.671875 45.399414 45.896973 45.829102 46.069824 46.279785 C 46.159668 46.477051 46.233398 46.681152 46.290039 46.890137 C 46.864746 46.721191 47.460938 46.633789 48.060059 46.629883 C 48.981445 46.630371 49.890625 46.838867 50.720215 47.240234 L 53 47.240234 C 53.21875 47.23584 53.420898 47.123047 53.540039 46.939941 C 53.641602 46.745117 53.638184 46.511719 53.529785 46.319824 Z M 53.529785 46.319824 " transform="matrix(8,0,0,8,0,0)"/>
<path style="fill:none;stroke-width:2;stroke-linecap:round;stroke-linejoin:round;stroke:rgb(0%,0%,0%);stroke-opacity:1;stroke-miterlimit:4;" d="M 48.779785 35.850098 C 48.745605 35.739258 48.745605 35.620605 48.779785 35.509766 C 49.102051 34.196289 49.102051 32.82373 48.779785 31.509766 C 48.638672 30.175781 48.183105 28.894043 47.450195 27.77002 C 47.269531 27.558594 47.249512 27.253418 47.399902 27.02002 C 47.554199 26.787598 47.848633 26.692383 48.109863 26.790039 L 56.109863 29.680176 C 56.315918 29.753906 56.465332 29.934082 56.5 30.149902 C 56.540527 30.365234 56.464355 30.585449 56.299805 30.72998 L 49.810059 36.169922 C 49.584961 36.339844 49.274902 36.339844 49.049805 36.169922 C 48.927246 36.096191 48.832031 35.983398 48.779785 35.850098 Z M 48.779785 35.850098 " transform="matrix(8,0,0,8,0,0)"/>
<path style="fill:none;stroke-width:2;stroke-linecap:round;stroke-linejoin:round;stroke:rgb(0%,0%,0%);stroke-opacity:1;stroke-miterlimit:4;" d="M 45.720215 24.740234 C 45.628906 24.672852 45.5625 24.578125 45.529785 24.470215 C 44.92334 23.277344 44.038574 22.248047 42.950195 21.470215 C 41.990234 20.53418 40.816406 19.847656 39.529785 19.470215 C 39.255859 19.421875 39.047363 19.197266 39.02002 18.919922 C 38.985352 18.644531 39.147949 18.381836 39.410156 18.290039 L 47.410156 15.390137 C 47.615234 15.318848 47.843262 15.36084 48.009766 15.5 C 48.178223 15.637695 48.258301 15.855957 48.220215 16.069824 L 46.75 24.410156 C 46.701172 24.6875 46.470703 24.896973 46.189941 24.919922 C 46.014648 24.931641 45.842773 24.866211 45.720215 24.740234 Z M 45.720215 24.740234 " transform="matrix(8,0,0,8,0,0)"/>
<path style="fill:none;stroke-width:2;stroke-linecap:round;stroke-linejoin:round;stroke:rgb(0%,0%,0%);stroke-opacity:1;stroke-miterlimit:4;" d="M 61 58.430176 C 60.701172 58.876953 60.197754 59.143555 59.660156 59.140137 L 29.660156 59.140137 C 29.104004 59.14502 28.585449 58.86084 28.290039 58.390137 C 27.755371 57.513184 27.433594 56.523438 27.350098 55.5 C 27.350098 55.370117 27.350098 55.220215 27.350098 55.080078 C 27.349121 54.683594 27.389648 54.288086 27.470215 53.899902 C 27.570312 53.380859 27.728027 52.874512 27.939941 52.390137 C 28.129883 51.976562 28.368164 51.586914 28.649902 51.22998 C 29.234863 50.438965 29.999023 49.797852 30.879883 49.359863 C 31.771973 48.905762 32.758789 48.669434 33.759766 48.669922 C 33.744629 48.463379 33.744629 48.256348 33.759766 48.049805 C 33.912109 46.516113 34.624512 45.092285 35.759766 44.049805 C 36.949219 42.918457 38.52832 42.288574 40.169922 42.290039 C 40.634277 42.289062 41.097168 42.339355 41.549805 42.439941 L 41.879883 42.529785 C 42.223145 42.616211 42.558105 42.733398 42.879883 42.879883 C 43.630371 43.205566 44.30957 43.674316 44.879883 44.259766 C 45.119141 44.513672 45.339844 44.784668 45.540039 45.069824 C 45.812012 45.469238 46.037109 45.898926 46.209961 46.350098 C 46.299805 46.546875 46.373535 46.750977 46.430176 46.959961 C 47.004883 46.791016 47.600586 46.703613 48.200195 46.700195 C 49.121094 46.700195 50.030762 46.908691 50.859863 47.310059 C 51.48291 47.601074 52.05127 47.996582 52.540039 48.47998 C 52.842285 48.754883 53.10791 49.067383 53.330078 49.410156 C 54.135742 49.039062 55.012695 48.847656 55.899902 48.850098 C 58.899902 48.848145 61.479492 50.974609 62.049805 53.919922 C 62.229004 55.499512 61.858398 57.092285 61 58.430176 Z M 61 58.430176 " transform="matrix(8,0,0,8,0,0)"/>
<path style="fill:none;stroke-width:2;stroke-linecap:round;stroke-linejoin:round;stroke:rgb(0%,0%,0%);stroke-opacity:1;stroke-miterlimit:4;" d="M 36.689941 17.160156 C 36.70459 17.439941 36.70459 17.720215 36.689941 18 C 36.661621 18.839844 36.457031 19.664062 36.089844 20.419922 C 35.997559 20.651855 35.879883 20.873047 35.740234 21.080078 C 35.719238 21.117676 35.691895 21.151367 35.660156 21.180176 C 35.617188 21.242676 35.562988 21.296875 35.5 21.339844 C 35.209473 21.638672 34.806641 21.801758 34.390137 21.790039 L 4.390137 21.790039 C 3.818848 21.793457 3.289062 21.492676 3 21 C 2.361328 19.994629 2.015137 18.831055 2 17.640137 C 1.993652 17.246582 2.03418 16.854004 2.120117 16.470215 C 2.66748 13.432617 5.313477 11.224609 8.399902 11.22998 C 8.410645 9.287598 9.300293 7.45459 10.819336 6.244141 C 12.338867 5.033691 14.324219 4.576172 16.220215 5 C 18.530273 5.513184 20.368652 7.259277 21 9.540039 C 21.575195 9.374512 22.171387 9.290039 22.77002 9.290039 C 24.393555 9.28418 25.953613 9.92041 27.109863 11.060059 C 27.410156 11.336426 27.675781 11.648926 27.899902 11.990234 C 28.710449 11.622559 29.589844 11.431641 30.47998 11.430176 L 30.600098 11.430176 C 33.539551 11.518555 36.02832 13.625488 36.600098 16.509766 C 36.649902 16.700195 36.669922 16.919922 36.689941 17.160156 Z M 36.689941 17.160156 " transform="matrix(8,0,0,8,0,0)"/>
<use xlink:href="#surface5" mask="url(#mask0)"/>
<path style=" stroke:none;fill-rule:nonzero;fill:rgb(100%,100%,100%);fill-opacity:1;" d="M 428.238281 375.519531 C 429.078125 373.972656 429.078125 372.105469 428.238281 370.558594 L 394.238281 312 C 393.140625 310.0625 390.855469 309.136719 388.71875 309.761719 C 386.59375 310.375 385.148438 312.347656 385.199219 314.558594 C 383.859375 325.113281 380.050781 335.199219 374.078125 344 L 373.519531 344.960938 L 388.238281 370.320312 C 389.078125 371.867188 389.078125 373.734375 388.238281 375.28125 C 387.890625 375.734375 387.457031 376.113281 386.960938 376.398438 C 397.402344 377.410156 407.015625 382.535156 413.679688 390.640625 C 417.574219 391.28125 421.382812 392.355469 425.039062 393.839844 C 423.332031 391.378906 421.375 389.101562 419.199219 387.039062 C 415.289062 383.171875 410.742188 380.007812 405.761719 377.679688 L 424 377.679688 C 425.675781 377.671875 427.25 376.871094 428.238281 375.519531 Z M 428.238281 375.519531 "/>
<path style=" stroke:none;fill-rule:nonzero;fill:rgb(100%,100%,100%);fill-opacity:1;" d="M 391.519531 261.679688 C 392.6875 269.136719 392.359375 276.75 390.558594 284.078125 C 390.285156 284.964844 390.285156 285.914062 390.558594 286.800781 C 390.800781 288.039062 391.484375 289.148438 392.480469 289.921875 C 394.277344 291.28125 396.761719 291.28125 398.558594 289.921875 L 450.480469 246.398438 C 451.792969 245.242188 452.402344 243.480469 452.078125 241.761719 C 451.804688 240.03125 450.609375 238.589844 448.960938 238 Z M 391.519531 261.679688 "/>
<path style=" stroke:none;fill-rule:nonzero;fill:rgb(100%,100%,100%);fill-opacity:1;" d="M 446.078125 390.238281 C 439.167969 390.261719 432.332031 391.703125 426 394.480469 C 441.140625 401.035156 452.085938 414.613281 455.28125 430.800781 C 457.203125 443.480469 454.65625 456.429688 448.078125 467.441406 C 445.6875 471.015625 441.660156 473.148438 437.359375 473.121094 L 477.359375 473.121094 C 481.632812 473.121094 485.625 470.992188 488 467.441406 C 494.578125 456.429688 497.121094 443.480469 495.199219 430.800781 C 490.644531 407.265625 470.050781 390.261719 446.078125 390.238281 Z M 446.078125 390.238281 "/>
<path style=" stroke:none;fill-rule:nonzero;fill:rgb(100%,100%,100%);fill-opacity:1;" d="M 348.078125 174.558594 C 344.558594 172 343.679688 171.519531 343.601562 171.601562 C 343.519531 171.679688 363.601562 193.839844 364.238281 195.601562 C 364.5 196.464844 365.03125 197.222656 365.761719 197.761719 C 366.703125 198.597656 367.941406 199.027344 369.199219 198.960938 C 371.445312 198.777344 373.289062 197.101562 373.679688 194.878906 L 385.441406 128 C 385.746094 126.289062 385.105469 124.542969 383.761719 123.441406 C 382.425781 122.324219 380.605469 121.992188 378.960938 122.558594 L 364.160156 128 Z M 348.078125 174.558594 "/>
<path style=" stroke:none;fill-rule:nonzero;fill:rgb(100%,100%,100%);fill-opacity:1;" d="M 248.640625 163.359375 C 247.898438 165.214844 246.960938 166.984375 245.839844 168.640625 C 245.671875 168.941406 245.457031 169.210938 245.199219 169.441406 C 244.855469 169.941406 244.421875 170.375 243.921875 170.71875 C 277.378906 179.546875 304.644531 203.765625 317.359375 235.949219 C 330.074219 268.136719 326.714844 304.449219 308.320312 333.761719 C 312.933594 333.09375 317.636719 333.476562 322.078125 334.878906 C 326.902344 336.375 331.480469 338.558594 335.679688 341.359375 C 350.640625 329.601562 352.878906 324.398438 351.679688 321.761719 C 350.988281 320.429688 350.683594 318.933594 350.800781 317.441406 C 351.1875 315.28125 352.320312 313.328125 354 311.921875 L 356.800781 316.71875 C 360.96875 306.371094 363.53125 295.445312 364.398438 284.320312 L 358 289.679688 C 358 289.679688 363.519531 292.320312 363.441406 292.398438 C 361.324219 292.300781 359.347656 291.3125 358 289.679688 C 355.761719 286.238281 360.160156 281.679688 362 275.519531 C 364.960938 265.921875 357.121094 264.71875 356.160156 248.480469 C 356.273438 241.472656 355.328125 234.488281 353.359375 227.761719 C 352.855469 226.078125 352.039062 224.503906 350.960938 223.121094 C 346.558594 217.679688 338.878906 217.839844 339.039062 216.480469 C 339.199219 215.121094 341.921875 214.878906 344.71875 214.640625 L 345.921875 215.039062 C 341.746094 208.882812 336.949219 203.171875 331.601562 198 C 330.871094 198.65625 329.941406 199.050781 328.960938 199.121094 C 327.699219 199.1875 326.464844 198.757812 325.519531 197.921875 C 324.792969 197.382812 324.257812 196.625 324 195.761719 C 322.601562 192.890625 320.855469 190.203125 318.800781 187.761719 C 308.191406 180.144531 296.292969 174.503906 283.679688 171.121094 C 284.183594 170.777344 284.617188 170.34375 284.960938 169.839844 C 285.214844 169.609375 285.433594 169.339844 285.601562 169.039062 C 286.71875 167.386719 287.660156 165.617188 288.398438 163.761719 C 288.398438 163.121094 288.960938 162.480469 289.28125 161.761719 L 288.398438 163.761719 C 288.398438 163.761719 291.359375 155.761719 291.359375 155.761719 L 293.28125 139.761719 C 293.238281 139.039062 293.238281 138.320312 293.28125 137.601562 C 293.28125 135.679688 293.28125 133.921875 292.800781 132.398438 C 288.226562 109.324219 268.316406 92.464844 244.800781 91.761719 L 243.839844 91.761719 C 237.003906 91.78125 230.246094 93.222656 224 96 C 226.945312 97.234375 229.761719 98.761719 232.398438 100.558594 C 243.355469 108.011719 250.871094 119.53125 253.28125 132.558594 C 253.28125 134.078125 253.28125 135.839844 253.761719 137.761719 C 253.878906 140 253.878906 142.242188 253.761719 144.480469 C 253.367188 151.058594 251.625 157.484375 248.640625 163.359375 Z M 248.640625 163.359375 "/>
</g>
</svg>
