<?xml version="1.0" encoding="UTF-8"?>
<svg xmlns="http://www.w3.org/2000/svg" xmlns:xlink="http://www.w3.org/1999/xlink" width="192pt" height="192pt" viewBox="0 0 192 192" version="1.1">
<defs>
<filter id="alpha" filterUnits="objectBoundingBox" x="0%" y="0%" width="100%" height="100%">
  <feColorMatrix type="matrix" in="SourceGraphic" values="0 0 0 0 1 0 0 0 0 1 0 0 0 0 1 0 0 0 1 0"/>
</filter>
<mask id="mask0">
  <g filter="url(#alpha)">
<rect x="0" y="0" width="192" height="192" style="fill:rgb(0%,0%,0%);fill-opacity:0.25098;stroke:none;"/>
  </g>
</mask>
<clipPath id="clip1">
  <rect x="0" y="0" width="192" height="192"/>
</clipPath>
<g id="surface5" clip-path="url(#clip1)">
<path style=" stroke:none;fill-rule:nonzero;fill:rgb(0%,0%,0%);fill-opacity:1;" d="M 62.128906 80.640625 L 62.609375 80.488281 C 61.152344 81.171875 59.886719 82.203125 58.921875 83.488281 C 57.691406 85.230469 57.960938 86.128906 56.851562 91.738281 C 56.550781 93.210938 55.859375 96.449219 55.230469 100.738281 C 55.089844 101.675781 55.089844 102.625 55.230469 103.558594 C 55.539062 105.472656 56.417969 107.25 57.75 108.660156 L 55.410156 106.679688 C 55.722656 110.800781 56.664062 114.847656 58.199219 118.679688 L 59.101562 117 C 58.171875 117.808594 58.019531 118.378906 58.078125 118.769531 C 58.179688 119.167969 58.332031 119.550781 58.53125 119.910156 L 60 123 C 61.714844 125.484375 63.984375 127.539062 66.628906 129 C 69.339844 131.183594 71.488281 133.980469 72.898438 137.160156 C 79.683594 141.863281 87.746094 144.375 96 144.359375 C 97.746094 144.359375 99.492188 144.242188 101.21875 144 C 101.175781 144.621094 101.175781 145.242188 101.21875 145.859375 C 98.21875 145.859375 95.257812 146.566406 92.578125 147.929688 C 91.519531 148.480469 90.511719 149.132812 89.578125 149.878906 C 90.300781 150.511719 91.199219 151.140625 91.800781 150.871094 C 92.398438 150.601562 92.011719 149.039062 92.640625 147.871094 C 94.019531 145.410156 99.539062 147.121094 100.078125 145.921875 C 100.621094 144.71875 91.378906 140.160156 83.941406 132.898438 C 81.449219 130.46875 70.621094 119.371094 70.289062 103.46875 C 70.183594 99.214844 70.761719 94.972656 72 90.898438 C 75.8125 79.167969 84.71875 69.785156 96.238281 65.371094 L 81.238281 65.371094 C 73.46875 68.402344 66.800781 73.726562 62.128906 80.640625 Z M 62.128906 80.640625 "/>
<path style=" stroke:none;fill-rule:nonzero;fill:rgb(0%,0%,0%);fill-opacity:1;" d="M 22.558594 90.570312 C 22.484375 90.886719 22.484375 91.214844 22.558594 91.53125 C 22.675781 91.835938 22.875 92.105469 23.128906 92.308594 L 42.570312 108.628906 C 43.234375 109.136719 44.15625 109.136719 44.820312 108.628906 C 45.492188 108.136719 45.761719 107.257812 45.480469 106.46875 C 44.777344 103.714844 44.644531 100.847656 45.089844 98.039062 L 38.128906 92.21875 L 28.800781 85.949219 C 25.109375 87.929688 22.648438 89.789062 22.558594 90.570312 Z M 22.558594 90.570312 "/>
<path style=" stroke:none;fill-rule:nonzero;fill:rgb(0%,0%,0%);fill-opacity:1;" d="M 98.578125 35.761719 L 98.578125 35.96875 L 99 36 Z M 98.578125 35.761719 "/>
<path style=" stroke:none;fill-rule:nonzero;fill:rgb(0%,0%,0%);fill-opacity:1;" d="M 44.101562 117 L 31.410156 138.988281 C 31.078125 139.566406 31.078125 140.273438 31.410156 140.851562 C 31.738281 141.417969 32.347656 141.761719 33 141.75 L 48 141.75 C 47.515625 141.375 46.980469 141.070312 46.410156 140.851562 C 43.976562 140.070312 41.320312 140.398438 39.148438 141.75 L 48.628906 122.671875 C 48.160156 121.125 47.800781 119.554688 47.550781 117.960938 C 47.597656 117.710938 47.597656 117.457031 47.550781 117.210938 L 47.550781 117 C 47.101562 116.640625 45.78125 116.609375 44.101562 117 Z M 44.101562 117 "/>
<path style=" stroke:none;fill-rule:nonzero;fill:rgb(0%,0%,0%);fill-opacity:1;" d="M 68.160156 145.710938 C 67.933594 145.453125 67.644531 145.253906 67.320312 145.140625 C 66.890625 144.945312 66.398438 144.945312 65.96875 145.140625 C 65.199219 145.472656 64.753906 146.289062 64.890625 147.121094 L 69.300781 172.199219 C 69.414062 172.847656 69.875 173.378906 70.5 173.578125 C 71.101562 173.816406 71.78125 173.699219 72.269531 173.28125 L 81.871094 165.238281 C 81.871094 165.660156 81.871094 166.109375 81.871094 166.5 C 82.121094 169.570312 83.085938 172.539062 84.691406 175.171875 C 85.574219 176.582031 87.132812 177.433594 88.800781 177.421875 L 103.800781 177.421875 C 102.132812 177.433594 100.574219 176.582031 99.691406 175.171875 C 97.980469 172.589844 97.003906 169.59375 96.871094 166.5 C 96.847656 159.550781 97.855469 152.632812 99.871094 145.980469 C 93.242188 145.601562 87.054688 149.308594 84.269531 155.335938 C 81.480469 161.359375 82.660156 168.476562 87.238281 173.28125 C 86.734375 173.660156 86.074219 173.773438 85.46875 173.578125 C 84.84375 173.378906 84.382812 172.847656 84.269531 172.199219 L 80.789062 152.371094 C 80.039062 152.160156 79.289062 151.890625 78.449219 151.589844 C 74.597656 150.488281 71.066406 148.46875 68.160156 145.710938 Z M 68.160156 145.710938 "/>
<path style=" stroke:none;fill-rule:nonzero;fill:rgb(0%,0%,0%);fill-opacity:1;" d="M 13.050781 65.371094 L 28.050781 65.371094 C 26.378906 65.339844 24.84375 64.441406 24 63 C 22.085938 59.984375 21.046875 56.492188 21 52.921875 C 20.980469 51.738281 21.101562 50.5625 21.359375 49.410156 C 23.003906 40.296875 30.941406 33.675781 40.199219 33.691406 C 40.1875 28.410156 42.359375 23.363281 46.199219 19.738281 C 47.847656 18.164062 49.769531 16.902344 51.871094 16.019531 C 50.828125 15.59375 49.753906 15.253906 48.660156 15 C 42.96875 13.757812 37.019531 15.15625 32.476562 18.804688 C 27.933594 22.449219 25.28125 27.953125 25.261719 33.78125 C 16 33.765625 8.0625 40.386719 6.421875 49.5 C 6.140625 50.660156 6 51.847656 6 53.039062 C 6.066406 56.574219 7.105469 60.019531 9 63 C 9.84375 64.441406 11.378906 65.339844 13.050781 65.371094 Z M 13.050781 65.371094 "/>
</g>
</defs>
<g id="surface1">
<path style=" stroke:none;fill-rule:nonzero;fill:rgb(100%,73.333333%,0%);fill-opacity:1;" d="M 136.859375 103.53125 C 136.878906 112.542969 133.890625 121.304688 128.371094 128.429688 C 127.402344 127.988281 126.398438 127.640625 125.371094 127.378906 L 124.378906 127.109375 C 123.019531 126.808594 121.632812 126.65625 120.238281 126.660156 C 115.339844 126.695312 110.636719 128.605469 107.101562 132 C 103.691406 135.125 101.558594 139.398438 101.101562 144 C 99.359375 144.242188 97.605469 144.363281 95.851562 144.359375 C 76.132812 144.402344 59.199219 130.347656 55.613281 110.957031 C 52.027344 91.566406 62.8125 72.382812 81.238281 65.371094 L 103.019531 65.371094 C 104.269531 65.40625 105.476562 64.914062 106.351562 64.019531 C 124.3125 68.734375 136.839844 84.960938 136.859375 103.53125 Z M 136.859375 103.53125 "/>
<path style=" stroke:none;fill-rule:nonzero;fill:rgb(100%,73.333333%,0%);fill-opacity:1;" d="M 50.039062 82.53125 C 49.976562 82.867188 49.820312 83.179688 49.589844 83.429688 C 47.398438 86.804688 46.03125 90.648438 45.601562 94.648438 C 44.621094 98.589844 44.621094 102.710938 45.601562 106.648438 C 45.882812 107.4375 45.613281 108.316406 44.941406 108.808594 C 44.273438 109.316406 43.355469 109.316406 42.691406 108.808594 L 23.191406 92.308594 C 22.691406 91.882812 22.453125 91.226562 22.566406 90.582031 C 22.675781 89.933594 23.117188 89.394531 23.730469 89.160156 L 47.730469 80.488281 C 48.523438 80.203125 49.410156 80.488281 49.890625 81.179688 C 50.113281 81.59375 50.164062 82.078125 50.039062 82.53125 Z M 50.039062 82.53125 "/>
<path style=" stroke:none;fill-rule:nonzero;fill:rgb(100%,73.333333%,0%);fill-opacity:1;" d="M 47.28125 117 C 47.457031 117.289062 47.550781 117.621094 47.550781 117.960938 C 48.023438 121.917969 49.445312 125.703125 51.691406 129 C 53.441406 132.628906 56.046875 135.777344 59.28125 138.179688 C 60.011719 138.589844 60.378906 139.4375 60.179688 140.25 C 59.972656 141.058594 59.246094 141.628906 58.410156 141.628906 L 33 141.628906 C 32.347656 141.640625 31.738281 141.296875 31.410156 140.730469 C 31.078125 140.15625 31.078125 139.445312 31.410156 138.871094 L 44.101562 117 C 44.53125 116.277344 45.390625 115.933594 46.199219 116.160156 C 46.660156 116.277344 47.050781 116.582031 47.28125 117 Z M 47.28125 117 "/>
<path style=" stroke:none;fill-rule:nonzero;fill:rgb(100%,73.333333%,0%);fill-opacity:1;" d="M 78.480469 151.589844 C 74.605469 150.457031 71.0625 148.398438 68.160156 145.589844 C 67.933594 145.332031 67.644531 145.136719 67.320312 145.019531 C 66.886719 144.855469 66.40625 144.855469 65.96875 145.019531 C 65.199219 145.351562 64.753906 146.171875 64.890625 147 L 69.300781 172.199219 C 69.414062 172.847656 69.875 173.378906 70.5 173.578125 C 71.101562 173.816406 71.78125 173.699219 72.269531 173.28125 L 81.871094 165.238281 C 81.867188 164.050781 81.988281 162.863281 82.230469 161.699219 C 82.53125 160.140625 83.003906 158.625 83.640625 157.171875 C 84.210938 155.929688 84.925781 154.761719 85.769531 153.691406 C 83.273438 153.246094 80.828125 152.542969 78.480469 151.589844 Z M 78.480469 151.589844 "/>
<path style=" stroke:none;fill-rule:nonzero;fill:rgb(100%,73.333333%,0%);fill-opacity:1;" d="M 160.589844 138.960938 L 147.839844 117 C 147.429688 116.273438 146.570312 115.925781 145.769531 116.160156 C 144.972656 116.390625 144.429688 117.128906 144.449219 117.960938 C 143.949219 121.917969 142.519531 125.699219 140.28125 129 C 139.105469 131.121094 137.742188 133.128906 136.199219 135 C 137.015625 136.199219 137.691406 137.488281 138.210938 138.839844 C 138.480469 139.429688 138.699219 140.042969 138.871094 140.671875 C 140.59375 140.164062 142.382812 139.902344 144.179688 139.890625 C 146.945312 139.890625 149.671875 140.515625 152.160156 141.71875 L 159 141.71875 C 159.65625 141.707031 160.261719 141.371094 160.621094 140.820312 C 160.925781 140.234375 160.914062 139.535156 160.589844 138.960938 Z M 160.589844 138.960938 "/>
<path style=" stroke:none;fill-rule:nonzero;fill:rgb(100%,73.333333%,0%);fill-opacity:1;" d="M 146.339844 107.550781 C 146.234375 107.21875 146.234375 106.863281 146.339844 106.53125 C 147.304688 102.589844 147.304688 98.472656 146.339844 94.53125 C 145.917969 90.527344 144.550781 86.683594 142.351562 83.308594 C 141.808594 82.675781 141.75 81.761719 142.199219 81.058594 C 142.664062 80.363281 143.546875 80.078125 144.328125 80.371094 L 168.328125 89.039062 C 168.949219 89.261719 169.394531 89.800781 169.5 90.449219 C 169.621094 91.09375 169.394531 91.757812 168.898438 92.191406 L 149.429688 108.511719 C 148.753906 109.019531 147.824219 109.019531 147.148438 108.511719 C 146.78125 108.289062 146.496094 107.949219 146.339844 107.550781 Z M 146.339844 107.550781 "/>
<path style=" stroke:none;fill-rule:nonzero;fill:rgb(100%,73.333333%,0%);fill-opacity:1;" d="M 137.160156 74.21875 C 136.886719 74.019531 136.6875 73.734375 136.589844 73.410156 C 134.769531 69.832031 132.117188 66.746094 128.851562 64.410156 C 125.972656 61.601562 122.449219 59.542969 118.589844 58.410156 C 117.765625 58.265625 117.140625 57.589844 117.058594 56.761719 C 116.957031 55.933594 117.445312 55.144531 118.230469 54.871094 L 142.230469 46.171875 C 142.847656 45.957031 143.53125 46.082031 144.03125 46.5 C 144.535156 46.914062 144.773438 47.566406 144.660156 48.210938 L 140.25 73.230469 C 140.101562 74.0625 139.414062 74.691406 138.570312 74.761719 C 138.042969 74.796875 137.527344 74.597656 137.160156 74.21875 Z M 137.160156 74.21875 "/>
<path style=" stroke:none;fill-rule:nonzero;fill:rgb(88.627451%,88.627451%,88.627451%);fill-opacity:1;" d="M 183 175.289062 C 182.101562 176.628906 180.59375 177.429688 178.980469 177.421875 L 88.980469 177.421875 C 87.3125 177.433594 85.757812 176.582031 84.871094 175.171875 C 83.265625 172.539062 82.300781 169.570312 82.050781 166.5 C 82.050781 166.109375 82.050781 165.660156 82.050781 165.238281 C 82.046875 164.050781 82.167969 162.863281 82.410156 161.699219 C 82.710938 160.140625 83.183594 158.625 83.820312 157.171875 C 84.390625 155.929688 85.105469 154.761719 85.949219 153.691406 C 87.703125 151.316406 89.996094 149.394531 92.640625 148.078125 C 95.316406 146.71875 98.277344 146.007812 101.28125 146.011719 C 101.234375 145.390625 101.234375 144.769531 101.28125 144.148438 C 101.738281 139.546875 103.871094 135.277344 107.28125 132.148438 C 110.847656 128.757812 115.585938 126.867188 120.511719 126.871094 C 121.902344 126.867188 123.289062 127.015625 124.648438 127.320312 L 125.640625 127.589844 C 126.667969 127.847656 127.671875 128.199219 128.640625 128.640625 C 130.890625 129.617188 132.929688 131.023438 134.640625 132.78125 C 135.355469 133.542969 136.019531 134.355469 136.621094 135.210938 C 137.4375 136.40625 138.109375 137.695312 138.628906 139.050781 C 138.898438 139.640625 139.121094 140.253906 139.289062 140.878906 C 141.015625 140.375 142.800781 140.109375 144.601562 140.101562 C 147.363281 140.101562 150.09375 140.726562 152.578125 141.929688 C 154.449219 142.800781 156.152344 143.988281 157.621094 145.441406 C 158.527344 146.265625 159.324219 147.203125 159.988281 148.230469 C 162.40625 147.117188 165.039062 146.542969 167.699219 146.550781 C 176.699219 146.542969 184.4375 152.925781 186.148438 161.761719 C 186.6875 166.5 185.574219 171.277344 183 175.289062 Z M 183 175.289062 "/>
<path style=" stroke:none;fill-rule:nonzero;fill:rgb(88.627451%,88.627451%,88.627451%);fill-opacity:1;" d="M 110.070312 51.480469 C 110.113281 52.320312 110.113281 53.160156 110.070312 54 C 109.984375 56.519531 109.371094 58.992188 108.269531 61.261719 C 107.992188 61.957031 107.640625 62.621094 107.21875 63.238281 C 107.15625 63.351562 107.074219 63.453125 106.980469 63.539062 C 106.851562 63.730469 106.6875 63.890625 106.5 64.019531 C 105.628906 64.914062 104.421875 65.40625 103.171875 65.371094 L 13.171875 65.371094 C 11.457031 65.382812 9.867188 64.476562 9 63 C 7.085938 59.984375 6.046875 56.492188 6 52.921875 C 5.980469 51.738281 6.101562 50.5625 6.359375 49.410156 C 8.003906 40.296875 15.941406 33.675781 25.199219 33.691406 C 25.230469 27.863281 27.902344 22.363281 32.457031 18.734375 C 37.015625 15.101562 42.972656 13.730469 48.660156 15 C 55.589844 16.539062 61.105469 21.777344 63 28.621094 C 64.726562 28.125 66.511719 27.871094 68.308594 27.871094 C 73.179688 27.851562 77.859375 29.761719 81.328125 33.179688 C 82.230469 34.007812 83.027344 34.945312 83.699219 35.96875 C 86.132812 34.867188 88.769531 34.296875 91.441406 34.289062 L 91.800781 34.289062 C 100.617188 34.554688 108.085938 40.875 109.800781 49.53125 C 109.949219 50.101562 110.011719 50.761719 110.070312 51.480469 Z M 110.070312 51.480469 "/>
<path style=" stroke:none;fill-rule:nonzero;fill:rgb(100%,100%,100%);fill-opacity:1;" d="M 119.621094 77.636719 C 116.1875 74.445312 112.085938 73.277344 110.460938 75.023438 C 108.839844 76.773438 110.308594 80.777344 113.742188 83.96875 C 117.179688 87.15625 121.28125 88.328125 122.90625 86.578125 C 124.527344 84.832031 123.058594 80.828125 119.621094 77.636719 Z M 119.621094 77.636719 "/>
<path style=" stroke:none;fill-rule:nonzero;fill:rgb(100%,100%,100%);fill-opacity:1;" d="M 127.742188 93.007812 C 126.550781 90.453125 124.539062 88.871094 123.25 89.472656 C 121.957031 90.078125 121.875 92.632812 123.066406 95.1875 C 124.253906 97.738281 126.265625 99.320312 127.558594 98.71875 C 128.851562 98.117188 128.933594 95.558594 127.742188 93.007812 Z M 127.742188 93.007812 "/>
<path style="fill:none;stroke-width:2;stroke-linecap:round;stroke-linejoin:round;stroke:rgb(0%,0%,0%);stroke-opacity:1;stroke-miterlimit:4;" d="M 45.619792 34.510417 C 45.626302 37.514323 44.630208 40.434896 42.790365 42.809896 C 42.467448 42.66276 42.132812 42.546875 41.790365 42.459635 L 41.459635 42.369792 C 41.00651 42.269531 40.544271 42.21875 40.079427 42.220052 C 38.446615 42.231771 36.878906 42.86849 35.700521 44 C 34.563802 45.041667 33.852865 46.466146 33.700521 48 C 33.119792 48.080729 32.535156 48.121094 31.950521 48.119792 C 25.377604 48.134115 19.733073 43.449219 18.53776 36.985677 C 17.342448 30.522135 20.9375 24.127604 27.079427 21.790365 L 34.339844 21.790365 C 34.75651 21.802083 35.158854 21.638021 35.450521 21.339844 C 41.4375 22.911458 45.613281 28.320312 45.619792 34.510417 Z M 45.619792 34.510417 " transform="matrix(3,0,0,3,0,0)"/>
<path style="fill:none;stroke-width:2;stroke-linecap:round;stroke-linejoin:round;stroke:rgb(0%,0%,0%);stroke-opacity:1;stroke-miterlimit:4;" d="M 16.679688 27.510417 C 16.658854 27.622396 16.606771 27.726562 16.529948 27.809896 C 15.799479 28.934896 15.34375 30.216146 15.200521 31.549479 C 14.873698 32.863281 14.873698 34.236979 15.200521 35.549479 C 15.294271 35.8125 15.204427 36.105469 14.980469 36.269531 C 14.757812 36.438802 14.451823 36.438802 14.230469 36.269531 L 7.730469 30.769531 C 7.563802 30.627604 7.484375 30.408854 7.522135 30.19401 C 7.558594 29.977865 7.705729 29.798177 7.910156 29.720052 L 15.910156 26.829427 C 16.174479 26.734375 16.470052 26.829427 16.630208 27.059896 C 16.704427 27.197917 16.721354 27.359375 16.679688 27.510417 Z M 16.679688 27.510417 " transform="matrix(3,0,0,3,0,0)"/>
<path style="fill:none;stroke-width:2;stroke-linecap:round;stroke-linejoin:round;stroke:rgb(0%,0%,0%);stroke-opacity:1;stroke-miterlimit:4;" d="M 15.760417 39 C 15.81901 39.096354 15.85026 39.207031 15.85026 39.320312 C 16.007812 40.639323 16.481771 41.901042 17.230469 43 C 17.813802 44.209635 18.682292 45.259115 19.760417 46.059896 C 20.003906 46.196615 20.126302 46.479167 20.059896 46.75 C 19.990885 47.019531 19.748698 47.209635 19.470052 47.209635 L 11 47.209635 C 10.782552 47.213542 10.579427 47.098958 10.470052 46.910156 C 10.359375 46.71875 10.359375 46.481771 10.470052 46.290365 L 14.700521 39 C 14.84375 38.759115 15.130208 38.644531 15.39974 38.720052 C 15.553385 38.759115 15.683594 38.860677 15.760417 39 Z M 15.760417 39 " transform="matrix(3,0,0,3,0,0)"/>
<path style="fill:none;stroke-width:2;stroke-linecap:round;stroke-linejoin:round;stroke:rgb(0%,0%,0%);stroke-opacity:1;stroke-miterlimit:4;" d="M 26.160156 50.529948 C 24.86849 50.152344 23.6875 49.466146 22.720052 48.529948 C 22.644531 48.44401 22.548177 48.378906 22.440104 48.339844 C 22.295573 48.285156 22.135417 48.285156 21.989583 48.339844 C 21.733073 48.450521 21.584635 48.723958 21.630208 49 L 23.10026 57.39974 C 23.138021 57.615885 23.291667 57.792969 23.5 57.859375 C 23.700521 57.938802 23.927083 57.89974 24.089844 57.760417 L 27.290365 55.079427 C 27.289062 54.683594 27.329427 54.28776 27.410156 53.89974 C 27.510417 53.380208 27.667969 52.875 27.880208 52.390625 C 28.070312 51.976562 28.308594 51.58724 28.589844 51.230469 C 27.757812 51.082031 26.942708 50.847656 26.160156 50.529948 Z M 26.160156 50.529948 " transform="matrix(3,0,0,3,0,0)"/>
<path style="fill:none;stroke-width:2;stroke-linecap:round;stroke-linejoin:round;stroke:rgb(0%,0%,0%);stroke-opacity:1;stroke-miterlimit:4;" d="M 53.529948 46.320312 L 49.279948 39 C 49.143229 38.757812 48.856771 38.641927 48.589844 38.720052 C 48.324219 38.796875 48.143229 39.042969 48.14974 39.320312 C 47.983073 40.639323 47.50651 41.89974 46.760417 43 C 46.36849 43.707031 45.914062 44.376302 45.39974 45 C 45.671875 45.39974 45.897135 45.829427 46.070312 46.279948 C 46.160156 46.476562 46.233073 46.68099 46.290365 46.890625 C 46.864583 46.721354 47.460938 46.634115 48.059896 46.630208 C 48.981771 46.630208 49.890625 46.838542 50.720052 47.239583 L 53 47.239583 C 53.21875 47.235677 53.420573 47.123698 53.540365 46.940104 C 53.641927 46.744792 53.638021 46.511719 53.529948 46.320312 Z M 53.529948 46.320312 " transform="matrix(3,0,0,3,0,0)"/>
<path style="fill:none;stroke-width:2;stroke-linecap:round;stroke-linejoin:round;stroke:rgb(0%,0%,0%);stroke-opacity:1;stroke-miterlimit:4;" d="M 48.779948 35.85026 C 48.744792 35.739583 48.744792 35.621094 48.779948 35.510417 C 49.101562 34.196615 49.101562 32.824219 48.779948 31.510417 C 48.639323 30.175781 48.183594 28.894531 47.450521 27.769531 C 47.269531 27.558594 47.25 27.253906 47.39974 27.019531 C 47.554688 26.78776 47.848958 26.692708 48.109375 26.790365 L 56.109375 29.679688 C 56.316406 29.753906 56.464844 29.933594 56.5 30.14974 C 56.540365 30.364583 56.464844 30.585938 56.299479 30.730469 L 49.809896 36.170573 C 49.584635 36.339844 49.27474 36.339844 49.049479 36.170573 C 48.927083 36.096354 48.832031 35.983073 48.779948 35.85026 Z M 48.779948 35.85026 " transform="matrix(3,0,0,3,0,0)"/>
<path style="fill:none;stroke-width:2;stroke-linecap:round;stroke-linejoin:round;stroke:rgb(0%,0%,0%);stroke-opacity:1;stroke-miterlimit:4;" d="M 45.720052 24.739583 C 45.628906 24.673177 45.5625 24.578125 45.529948 24.470052 C 44.923177 23.277344 44.039062 22.248698 42.950521 21.470052 C 41.990885 20.533854 40.816406 19.847656 39.529948 19.470052 C 39.255208 19.421875 39.046875 19.196615 39.019531 18.920573 C 38.985677 18.644531 39.148438 18.38151 39.410156 18.290365 L 47.410156 15.390625 C 47.615885 15.31901 47.84375 15.360677 48.010417 15.5 C 48.178385 15.638021 48.257812 15.855469 48.220052 16.070312 L 46.75 24.410156 C 46.700521 24.6875 46.471354 24.897135 46.190104 24.920573 C 46.014323 24.932292 45.842448 24.865885 45.720052 24.739583 Z M 45.720052 24.739583 " transform="matrix(3,0,0,3,0,0)"/>
<path style="fill:none;stroke-width:2;stroke-linecap:round;stroke-linejoin:round;stroke:rgb(0%,0%,0%);stroke-opacity:1;stroke-miterlimit:4;" d="M 61 58.429688 C 60.700521 58.876302 60.197917 59.143229 59.660156 59.140625 L 29.660156 59.140625 C 29.104167 59.144531 28.585938 58.860677 28.290365 58.390625 C 27.755208 57.513021 27.433594 56.523438 27.35026 55.5 C 27.35026 55.369792 27.35026 55.220052 27.35026 55.079427 C 27.348958 54.683594 27.389323 54.28776 27.470052 53.89974 C 27.570312 53.380208 27.727865 52.875 27.940104 52.390625 C 28.130208 51.976562 28.36849 51.58724 28.64974 51.230469 C 29.234375 50.438802 29.998698 49.798177 30.880208 49.359375 C 31.772135 48.90625 32.759115 48.669271 33.760417 48.670573 C 33.744792 48.463542 33.744792 48.25651 33.760417 48.049479 C 33.91276 46.515625 34.623698 45.092448 35.760417 44.049479 C 36.949219 42.919271 38.528646 42.289062 40.170573 42.290365 C 40.634115 42.289062 41.096354 42.338542 41.549479 42.440104 L 41.880208 42.529948 C 42.222656 42.615885 42.557292 42.733073 42.880208 42.880208 C 43.630208 43.205729 44.309896 43.674479 44.880208 44.260417 C 45.11849 44.514323 45.339844 44.785156 45.540365 45.070312 C 45.8125 45.46875 46.036458 45.898438 46.209635 46.35026 C 46.299479 46.546875 46.373698 46.751302 46.429688 46.959635 C 47.005208 46.791667 47.60026 46.703125 48.200521 46.700521 C 49.121094 46.700521 50.03125 46.908854 50.859375 47.309896 C 51.483073 47.60026 52.050781 47.996094 52.540365 48.480469 C 52.842448 48.755208 53.108073 49.067708 53.329427 49.410156 C 54.135417 49.039062 55.013021 48.847656 55.89974 48.85026 C 58.89974 48.847656 61.479167 50.97526 62.049479 53.920573 C 62.229167 55.5 61.858073 57.092448 61 58.429688 Z M 61 58.429688 " transform="matrix(3,0,0,3,0,0)"/>
<path style="fill:none;stroke-width:2;stroke-linecap:round;stroke-linejoin:round;stroke:rgb(0%,0%,0%);stroke-opacity:1;stroke-miterlimit:4;" d="M 36.690104 17.160156 C 36.704427 17.440104 36.704427 17.720052 36.690104 18 C 36.661458 18.839844 36.457031 19.664062 36.089844 20.420573 C 35.997396 20.652344 35.880208 20.873698 35.739583 21.079427 C 35.71875 21.117188 35.691406 21.151042 35.660156 21.179688 C 35.617188 21.24349 35.5625 21.296875 35.5 21.339844 C 35.209635 21.638021 34.807292 21.802083 34.390625 21.790365 L 4.390625 21.790365 C 3.81901 21.794271 3.289062 21.492188 3 21 C 2.361979 19.994792 2.015625 18.830729 2 17.640625 C 1.99349 17.246094 2.033854 16.854167 2.119792 16.470052 C 2.667969 13.432292 5.313802 11.22526 8.39974 11.230469 C 8.410156 9.28776 9.300781 7.454427 10.81901 6.244792 C 12.338542 5.033854 14.324219 4.576823 16.220052 5 C 18.529948 5.513021 20.36849 7.259115 21 9.540365 C 21.575521 9.375 22.170573 9.290365 22.769531 9.290365 C 24.393229 9.283854 25.953125 9.920573 27.109375 11.059896 C 27.410156 11.335938 27.675781 11.648438 27.89974 11.989583 C 28.710938 11.622396 29.589844 11.432292 30.480469 11.429688 L 30.60026 11.429688 C 33.539062 11.518229 36.028646 13.625 36.60026 16.510417 C 36.64974 16.700521 36.670573 16.920573 36.690104 17.160156 Z M 36.690104 17.160156 " transform="matrix(3,0,0,3,0,0)"/>
<use xlink:href="#surface5" mask="url(#mask0)"/>
<path style=" stroke:none;fill-rule:nonzero;fill:rgb(100%,100%,100%);fill-opacity:1;" d="M 160.589844 140.820312 C 160.90625 140.238281 160.90625 139.539062 160.589844 138.960938 L 147.839844 117 C 147.429688 116.273438 146.570312 115.925781 145.769531 116.160156 C 144.972656 116.390625 144.429688 117.128906 144.449219 117.960938 C 143.949219 121.917969 142.519531 125.699219 140.28125 129 L 140.070312 129.359375 L 145.589844 138.871094 C 145.90625 139.449219 145.90625 140.148438 145.589844 140.730469 C 145.460938 140.902344 145.296875 141.042969 145.109375 141.148438 C 149.027344 141.527344 152.632812 143.449219 155.128906 146.488281 C 156.589844 146.730469 158.019531 147.132812 159.390625 147.691406 C 158.75 146.765625 158.015625 145.914062 157.199219 145.140625 C 155.734375 143.691406 154.027344 142.503906 152.160156 141.628906 L 159 141.628906 C 159.628906 141.628906 160.21875 141.328125 160.589844 140.820312 Z M 160.589844 140.820312 "/>
<path style=" stroke:none;fill-rule:nonzero;fill:rgb(100%,100%,100%);fill-opacity:1;" d="M 146.820312 98.128906 C 147.257812 100.925781 147.136719 103.78125 146.460938 106.53125 C 146.355469 106.863281 146.355469 107.21875 146.460938 107.550781 C 146.550781 108.015625 146.804688 108.429688 147.179688 108.71875 C 147.855469 109.230469 148.785156 109.230469 149.460938 108.71875 L 168.929688 92.398438 C 169.421875 91.964844 169.652344 91.304688 169.53125 90.660156 C 169.425781 90.011719 168.976562 89.472656 168.359375 89.25 Z M 146.820312 98.128906 "/>
<path style=" stroke:none;fill-rule:nonzero;fill:rgb(100%,100%,100%);fill-opacity:1;" d="M 167.28125 146.339844 C 164.6875 146.347656 162.125 146.890625 159.75 147.929688 C 165.425781 150.386719 169.53125 155.480469 170.730469 161.550781 C 171.449219 166.304688 170.496094 171.160156 168.03125 175.289062 C 167.132812 176.628906 165.621094 177.429688 164.011719 177.421875 L 179.011719 177.421875 C 180.613281 177.421875 182.109375 176.621094 183 175.289062 C 185.464844 171.160156 186.421875 166.304688 185.699219 161.550781 C 183.992188 152.726562 176.269531 146.347656 167.28125 146.339844 Z M 167.28125 146.339844 "/>
<path style=" stroke:none;fill-rule:nonzero;fill:rgb(100%,100%,100%);fill-opacity:1;" d="M 130.53125 65.460938 C 129.210938 64.5 128.878906 64.320312 128.851562 64.351562 C 128.820312 64.378906 136.351562 72.691406 136.589844 73.351562 C 136.6875 73.675781 136.886719 73.960938 137.160156 74.160156 C 137.515625 74.472656 137.976562 74.636719 138.449219 74.609375 C 139.292969 74.542969 139.984375 73.914062 140.128906 73.078125 L 144.539062 48 C 144.65625 47.359375 144.414062 46.703125 143.910156 46.289062 C 143.410156 45.871094 142.726562 45.746094 142.109375 45.960938 L 136.558594 48 Z M 130.53125 65.460938 "/>
<path style=" stroke:none;fill-rule:nonzero;fill:rgb(100%,100%,100%);fill-opacity:1;" d="M 93.238281 61.261719 C 92.960938 61.957031 92.609375 62.621094 92.191406 63.238281 C 92.128906 63.351562 92.046875 63.453125 91.949219 63.539062 C 91.820312 63.730469 91.660156 63.890625 91.46875 64.019531 C 104.019531 67.332031 114.242188 76.410156 119.011719 88.480469 C 123.777344 100.550781 122.519531 114.167969 115.621094 125.160156 C 117.351562 124.910156 119.113281 125.054688 120.78125 125.578125 C 122.585938 126.140625 124.304688 126.960938 125.878906 128.011719 C 131.488281 123.601562 132.328125 121.648438 131.878906 120.660156 C 131.621094 120.160156 131.507812 119.601562 131.550781 119.039062 C 131.695312 118.230469 132.121094 117.5 132.75 116.96875 L 133.800781 118.769531 C 135.363281 114.890625 136.324219 110.792969 136.648438 106.621094 L 134.25 108.628906 C 134.25 108.628906 136.320312 109.621094 136.289062 109.648438 C 135.496094 109.613281 134.757812 109.242188 134.25 108.628906 C 133.410156 107.339844 135.058594 105.628906 135.75 103.320312 C 136.859375 99.71875 133.921875 99.269531 133.558594 93.179688 C 133.601562 90.550781 133.246094 87.933594 132.511719 85.410156 C 132.320312 84.777344 132.015625 84.1875 131.609375 83.671875 C 129.960938 81.628906 127.078125 81.691406 127.140625 81.179688 C 127.199219 80.671875 128.21875 80.578125 129.269531 80.488281 L 129.71875 80.640625 C 128.15625 78.332031 126.355469 76.1875 124.351562 74.25 C 124.074219 74.496094 123.726562 74.644531 123.359375 74.671875 C 122.886719 74.695312 122.425781 74.535156 122.070312 74.21875 C 121.796875 74.019531 121.597656 73.734375 121.5 73.410156 C 120.976562 72.332031 120.320312 71.324219 119.550781 70.410156 C 115.570312 67.554688 111.109375 65.441406 106.378906 64.171875 C 106.570312 64.042969 106.730469 63.878906 106.859375 63.691406 C 106.957031 63.605469 107.035156 63.503906 107.101562 63.390625 C 107.519531 62.769531 107.871094 62.105469 108.148438 61.410156 C 108.148438 61.171875 108.359375 60.929688 108.480469 60.660156 L 108.148438 61.410156 C 108.148438 61.410156 109.261719 58.410156 109.261719 58.410156 L 109.980469 52.410156 C 109.964844 52.140625 109.964844 51.871094 109.980469 51.601562 C 109.980469 50.878906 109.980469 50.21875 109.800781 49.648438 C 108.085938 40.996094 100.617188 34.675781 91.800781 34.410156 L 91.441406 34.410156 C 88.875 34.417969 86.34375 34.957031 84 36 C 85.105469 36.460938 86.160156 37.035156 87.148438 37.710938 C 91.257812 40.503906 94.078125 44.824219 94.980469 49.710938 C 94.980469 50.28125 94.980469 50.941406 95.160156 51.660156 C 95.203125 52.5 95.203125 53.339844 95.160156 54.179688 C 95.011719 56.648438 94.359375 59.058594 93.238281 61.261719 Z M 93.238281 61.261719 "/>
</g>
</svg>
